<svg id="Layer_1" data-name="Layer 1" xmlns="http://www.w3.org/2000/svg" viewBox="0 0 79.872 79.596"><path d="M99.63,32.775A9.752,9.752,0,0,0,98,29.57a9.932,9.932,0,0,0-6.009-3.726,8.936,8.936,0,0,0-1.8-.158l-.792.027c-.282.01-.563.027-.843.054a15.624,15.624,0,0,0-3.274.671,18.512,18.512,0,0,0-3.005,1.286c-.969.535-1.832,1.105-2.7,1.693-.762.529-1.5,1.084-2.223,1.649l.311-.417a6.727,6.727,0,0,0,.528-.917,6.6,6.6,0,0,0,.572-2.034,7.114,7.114,0,0,0-.1-2.078,7.219,7.219,0,0,0-1.891-3.582,9.364,9.364,0,0,0-1.507-1.219,9.5,9.5,0,0,0-3.535-1.4c-.157-.027-.32-.052-.488-.072s-.3-.025-.453-.037c-.3-.022-.6-.046-.89-.041a16.685,16.685,0,0,0-6.686,1.444c-1.014.431-1.976.918-2.9,1.419s-1.84,1.016-2.717,1.578L55,25.335c-.863.542-1.7,1.07-2.535,1.548a21.924,21.924,0,0,1-2.534,1.257,12.117,12.117,0,0,1-2.58.785,8.708,8.708,0,0,1-2.555.109,8.384,8.384,0,0,1-2.436-.693,7.4,7.4,0,0,1-3.537-3.567,8.784,8.784,0,0,1-.659-5.224A9.983,9.983,0,0,1,39,16.964a7.582,7.582,0,0,1,1.65-2.144,8.187,8.187,0,0,1,2.342-1.465,8.347,8.347,0,0,1,2.767-.59,6.668,6.668,0,0,1,.721-.007,4.083,4.083,0,0,1,.7.06,4.812,4.812,0,0,1,1.341.424,5.877,5.877,0,0,1,2.22,1.845l.3-.19a6.361,6.361,0,0,0-2.158-2.313,5.653,5.653,0,0,0-1.5-.669,5.034,5.034,0,0,0-.811-.166,7.45,7.45,0,0,0-.8-.084,9.353,9.353,0,0,0-6.2,1.843A9.453,9.453,0,0,0,37.29,15.99,11.348,11.348,0,0,0,36,19.087a11.2,11.2,0,0,0,.388,6.72A10.148,10.148,0,0,0,40.985,31a11.478,11.478,0,0,0,3.357,1.162,11.762,11.762,0,0,0,3.529.008,15.48,15.48,0,0,0,3.294-.852,25.361,25.361,0,0,0,2.991-1.333c.958-.5,1.853-1.03,2.728-1.546l2.621-1.54c3.45-1.982,6.935-3.85,10.363-3.786.216-.008.426.01.636.023.1.007.218.01.308.02s.174.021.269.037a5.633,5.633,0,0,1,1.095.3A5.706,5.706,0,0,1,73.193,24a5.977,5.977,0,0,1,.884.668,4.1,4.1,0,0,1,.607.789,4.043,4.043,0,0,1,.357.923,3.489,3.489,0,0,1,.072.951,2.942,2.942,0,0,1-.225.89,2.907,2.907,0,0,1-.22.407l-.132.191a2.56,2.56,0,0,1-.185.206,5.818,5.818,0,0,1-.831.778,5.7,5.7,0,0,1-2.132.964,20.392,20.392,0,0,1-5.6.218c-1.007-.059-2.12-.078-3.117-.083-1.047-.006-2.1.015-3.163.082a25.478,25.478,0,0,0-6.35,1.142,18.24,18.24,0,0,0-3.021,1.277,13.238,13.238,0,0,0-1.439.87,11.862,11.862,0,0,0-1.321,1.07,9.669,9.669,0,0,0-1.5,1.789,9.683,9.683,0,0,0-1.795,1.493,11.848,11.848,0,0,0-1.074,1.316,13.208,13.208,0,0,0-.873,1.434,18.062,18.062,0,0,0-1.281,3.01,25.288,25.288,0,0,0-1.146,6.328c-.067,1.058-.088,2.11-.082,3.153,0,.993.024,2.1.083,3.106a20.178,20.178,0,0,1-.219,5.578,5.675,5.675,0,0,1-.967,2.124,5.818,5.818,0,0,1-.781.828,2.586,2.586,0,0,1-.207.185l-.191.131a3.087,3.087,0,0,1-.408.22,2.964,2.964,0,0,1-.894.223,3.471,3.471,0,0,1-.954-.071,4.045,4.045,0,0,1-.926-.356,4.111,4.111,0,0,1-.792-.605,5.862,5.862,0,0,1-.67-.881,5.654,5.654,0,0,1-.516-1.014,5.579,5.579,0,0,1-.3-1.091c-.016-.094-.028-.183-.037-.267s-.013-.206-.02-.308a6.311,6.311,0,0,1-.023-.633c-.065-3.416,1.81-6.889,3.8-10.328L37.152,48.1c.518-.872,1.054-1.764,1.551-2.719A25.238,25.238,0,0,0,40.042,42.4a15.316,15.316,0,0,0,.854-3.282,11.65,11.65,0,0,0-.008-3.517,11.4,11.4,0,0,0-1.166-3.346,10.164,10.164,0,0,0-5.206-4.583,11.314,11.314,0,0,0-6.744-.388,11.432,11.432,0,0,0-3.107,1.29,9.414,9.414,0,0,0-2.491,2.265,9.273,9.273,0,0,0-1.849,6.183,7.4,7.4,0,0,0,.084.8,5.1,5.1,0,0,0,.166.809,5.675,5.675,0,0,0,.672,1.494,6.379,6.379,0,0,0,2.321,2.15l.191-.3a5.865,5.865,0,0,1-1.852-2.213,4.815,4.815,0,0,1-.425-1.336,4.05,4.05,0,0,1-.06-.7,6.145,6.145,0,0,1,.007-.718,8.271,8.271,0,0,1,.591-2.757,8.129,8.129,0,0,1,1.471-2.334,7.613,7.613,0,0,1,2.151-1.645,10.077,10.077,0,0,1,2.595-.831,8.868,8.868,0,0,1,5.243.656,7.4,7.4,0,0,1,3.579,3.525,8.3,8.3,0,0,1,.7,2.427,8.619,8.619,0,0,1-.109,2.547,12,12,0,0,1-.788,2.571A21.846,21.846,0,0,1,35.6,43.692c-.48.827-1.01,1.666-1.554,2.526L32.411,48.81c-.564.874-1.083,1.792-1.584,2.708S29.836,53.4,29.4,54.411a16.545,16.545,0,0,0-1.449,6.663c0,.292.019.59.041.886.013.152.018.29.038.452s.044.33.072.486a9.436,9.436,0,0,0,1.406,3.523,9.282,9.282,0,0,0,1.223,1.5,7.867,7.867,0,0,0,1.659,1.2,7.784,7.784,0,0,0,1.935.687,7.162,7.162,0,0,0,2.085.1,6.621,6.621,0,0,0,2.041-.569,6.7,6.7,0,0,0,.921-.526l.419-.31c-.568.721-1.124,1.456-1.655,2.215-.59.865-1.162,1.725-1.7,2.69a18.454,18.454,0,0,0-1.289,3,15.4,15.4,0,0,0-.674,3.263c-.027.279-.044.559-.055.84l-.027.79a8.8,8.8,0,0,0,.16,1.794,9.932,9.932,0,0,0,6.954,7.61c.548.16,1.112.275,1.67.405a12.332,12.332,0,0,0,1.778.135,12.01,12.01,0,0,0,6.62-2.022,14.017,14.017,0,0,0,2.606-2.208A15.449,15.449,0,0,0,56.15,84.25a14.632,14.632,0,0,0,1.266-3.139,11.886,11.886,0,0,0,.4-3.379l0-.088v-.005a9.333,9.333,0,0,0-.974-3.306,7.8,7.8,0,0,0-2.22-2.691,6.583,6.583,0,0,0-3.275-1.3,5.646,5.646,0,0,0-3.47.689,6.257,6.257,0,0,0-2.334,2.446,5.337,5.337,0,0,0-.747,3.252,5.487,5.487,0,0,0,3.825,4.74l.132-.332a5.178,5.178,0,0,1-2.084-1.877,4.682,4.682,0,0,1-.714-2.578,4.1,4.1,0,0,1,.831-2.415l.2-.265c.088-.117.148-.189.22-.274a4.878,4.878,0,0,1,.452-.457,4.56,4.56,0,0,1,1.04-.682,3.728,3.728,0,0,1,2.353-.261A4.581,4.581,0,0,1,53.21,73.39,6.223,6.223,0,0,1,55.2,77.765a11.225,11.225,0,0,1-5.286,8.866,8.864,8.864,0,0,1-4.916,1.42,9.222,9.222,0,0,1-1.263-.116c-.431-.11-.868-.194-1.3-.319a7.175,7.175,0,0,1-2.216-1.093,7.794,7.794,0,0,1-1.727-1.783,6.907,6.907,0,0,1-1-2.257,7.215,7.215,0,0,1-.169-1.228l-.023-.733c-.007-.227-.008-.454,0-.681a12.646,12.646,0,0,1,.377-2.725,16.369,16.369,0,0,1,.908-2.68c.385-.845.867-1.725,1.354-2.582a54.752,54.752,0,0,1,3.331-4.991c.6-.813,1.213-1.619,1.828-2.428l1.876-2.411c1.237-1.621,2.472-3.272,3.6-4.976l1.692-2.563c.283-.427.576-.846.85-1.281s.524-.889.771-1.343a27.355,27.355,0,0,0,2.035-4.728,27.541,27.541,0,0,0,4.745-2.028c.455-.247.906-.5,1.347-.768s.857-.566,1.286-.847L65.865,41.8c1.71-1.123,3.367-2.353,4.994-3.586l2.42-1.869c.811-.613,1.619-1.226,2.435-1.822a55.233,55.233,0,0,1,5.009-3.32c.86-.485,1.743-.966,2.591-1.349a16.643,16.643,0,0,1,2.689-.9,12.861,12.861,0,0,1,2.735-.376c.228-.006.456,0,.683,0l.736.024a7.26,7.26,0,0,1,1.232.168,6.945,6.945,0,0,1,2.264,1,7.8,7.8,0,0,1,1.789,1.721,7.116,7.116,0,0,1,1.1,2.209c.126.428.21.864.32,1.294a9.151,9.151,0,0,1,.117,1.258,8.785,8.785,0,0,1-1.425,4.9,11.275,11.275,0,0,1-8.9,5.267,6.257,6.257,0,0,1-4.39-1.978A4.574,4.574,0,0,1,81.2,42.285a3.7,3.7,0,0,1,.262-2.345,4.5,4.5,0,0,1,.685-1.036,4.76,4.76,0,0,1,.458-.451c.085-.072.158-.131.275-.219l.267-.2a4.123,4.123,0,0,1,2.423-.828,4.711,4.711,0,0,1,2.586.711,5.167,5.167,0,0,1,1.884,2.077l.333-.132a5.5,5.5,0,0,0-4.756-3.811,5.38,5.38,0,0,0-3.263.744A6.258,6.258,0,0,0,79.9,39.118a5.59,5.59,0,0,0-.691,3.457,6.537,6.537,0,0,0,1.3,3.265,7.83,7.83,0,0,0,2.7,2.212,9.409,9.409,0,0,0,3.318.97h0l.088,0a12,12,0,0,0,3.391-.4,14.782,14.782,0,0,0,3.15-1.262,15.486,15.486,0,0,0,2.766-1.961,14,14,0,0,0,2.215-2.6,11.9,11.9,0,0,0,2.029-6.6,12.109,12.109,0,0,0-.135-1.772C99.907,33.883,99.791,33.321,99.63,32.775ZM54.993,45.8c-.025.11-.054.22-.08.33-.11.026-.221.055-.33.079a10.925,10.925,0,0,1-2.868.158,11.849,11.849,0,0,1-1.429-.193,5.713,5.713,0,0,1-1.225-.452,4.693,4.693,0,0,1-2.5-4.213,5.2,5.2,0,0,1,.924-2.783,5.238,5.238,0,0,1,2.793-.92A4.71,4.71,0,0,1,54.5,40.3a5.688,5.688,0,0,1,.454,1.221,11.944,11.944,0,0,1,.194,1.424A10.8,10.8,0,0,1,54.993,45.8ZM52.9,51.338c-.234.44-.476.877-.731,1.308s-.548.845-.822,1.268l-1.682,2.515a56.52,56.52,0,0,1-3.7,4.787l-1.98,2.314c-.668.761-1.339,1.523-2,2.3a9.761,9.761,0,0,0,.9-2.509A23.037,23.037,0,0,0,43,56.768c-.092-1.022-.125-1.942-.175-2.978-.043-.986-.061-1.966-.036-2.937a25,25,0,0,1,.735-5.676,17.728,17.728,0,0,1,.94-2.655c.065-.148.135-.288.2-.429a6.486,6.486,0,0,0,1.068,2.788,6.647,6.647,0,0,0,2.642,2.232,7.164,7.164,0,0,0,1.666.507,13.507,13.507,0,0,0,1.607.128,13.791,13.791,0,0,0,2.877-.237c-.119.376-.246.75-.386,1.118A24.959,24.959,0,0,1,52.9,51.338Zm19.472-16.1-2.322,1.973a56.471,56.471,0,0,1-4.8,3.69L62.72,42.578c-.424.272-.843.556-1.272.819s-.871.5-1.313.728a24.774,24.774,0,0,1-2.717,1.241c-.37.139-.745.266-1.123.385a13.63,13.63,0,0,0,.238-2.867,13.22,13.22,0,0,0-.129-1.6,7.04,7.04,0,0,0-.509-1.66,6.626,6.626,0,0,0-2.238-2.633,6.551,6.551,0,0,0-2.8-1.064c.142-.069.282-.138.431-.2a17.864,17.864,0,0,1,2.664-.937,25.227,25.227,0,0,1,5.7-.733c.974-.024,1.957-.007,2.947.037,1.04.049,1.963.082,2.989.174a23.309,23.309,0,0,0,6.576-.119,9.856,9.856,0,0,0,2.517-.9C73.9,33.905,73.134,34.573,72.37,35.239Z" transform="translate(-20.305 -11.645)" style="fill:#d2aa6d"/></svg>