<svg xmlns="http://www.w3.org/2000/svg" id="Layer_1" data-name="Layer 1" viewBox="0 0 569.224 768.71"><defs><style>.cls-1{fill:#d2aa6d}</style></defs><path d="M19.257 627.692c.1 1.941.174 3.882.366 5.824.162 1.941.421 3.881.653 5.823a68.053 68.053 0 0 1 .576 11.646c-.151 3.882-.98 7.764-1.31 11.646a49.659 49.659 0 0 0-.142 5.823q.059 2.911.284 5.823c.146 1.941.345 3.882.621 5.823a53.308 53.308 0 0 0 1.117 5.823h.512a53.541 53.541 0 0 0 1.116-5.823c.276-1.941.475-3.882.622-5.823s.244-3.882.283-5.823a49.659 49.659 0 0 0-.142-5.823c-.329-3.882-1.159-7.764-1.309-11.646a67.95 67.95 0 0 1 .575-11.646c.232-1.942.491-3.882.654-5.823.191-1.942.265-3.883.365-5.824.2-3.882.4-7.764.314-11.646s-.326-7.764-.711-11.646a112.235 112.235 0 0 0-.714-5.823c-.28-1.941-.607-3.882-1.053-5.823h-.512c-.447 1.941-.774 3.882-1.054 5.823-.3 1.941-.52 3.882-.714 5.823q-.578 5.823-.711 11.646c-.084 3.882.119 7.764.314 11.646ZM75.623 734.955a15.486 15.486 0 0 0-2.766-1.961 14.782 14.782 0 0 0-3.15-1.262 12 12 0 0 0-3.391-.4h-.088a9.409 9.409 0 0 0-3.318.97 7.83 7.83 0 0 0-2.7 2.212 6.537 6.537 0 0 0-1.3 3.265 5.59 5.59 0 0 0 .691 3.457 6.268 6.268 0 0 0 2.455 2.327 5.387 5.387 0 0 0 3.263.743 5.5 5.5 0 0 0 4.756-3.811l-.333-.132a5.167 5.167 0 0 1-1.884 2.077 4.721 4.721 0 0 1-2.586.712 4.131 4.131 0 0 1-2.423-.829l-.267-.2a4.998 4.998 0 0 1-.275-.219 4.76 4.76 0 0 1-.458-.451 4.5 4.5 0 0 1-.685-1.036 3.7 3.7 0 0 1-.262-2.345 4.574 4.574 0 0 1 1.066-2.151 6.257 6.257 0 0 1 4.39-1.978 11.275 11.275 0 0 1 8.9 5.267 8.785 8.785 0 0 1 1.425 4.9 9.151 9.151 0 0 1-.117 1.258c-.11.43-.194.866-.32 1.294a7.116 7.116 0 0 1-1.1 2.209 7.8 7.8 0 0 1-1.789 1.721 6.945 6.945 0 0 1-2.264 1 7.26 7.26 0 0 1-1.232.168l-.736.024a11.11 11.11 0 0 1-.683 0 12.861 12.861 0 0 1-2.747-.381 16.643 16.643 0 0 1-2.689-.9c-.848-.383-1.731-.864-2.591-1.349a55.233 55.233 0 0 1-5.009-3.32c-.816-.6-1.624-1.209-2.435-1.822l-2.42-1.869c-1.627-1.233-3.284-2.463-4.994-3.586l-2.571-1.687c-.429-.281-.85-.573-1.286-.847s-.892-.521-1.347-.768a27.541 27.541 0 0 0-4.745-2.028 27.355 27.355 0 0 0-2.035-4.728c-.247-.454-.5-.9-.771-1.343s-.567-.854-.85-1.281l-1.692-2.563c-1.127-1.7-2.362-3.355-3.6-4.976l-1.876-2.411c-.615-.809-1.23-1.615-1.828-2.428a54.752 54.752 0 0 1-3.331-4.991c-.487-.857-.969-1.737-1.354-2.582a16.369 16.369 0 0 1-.908-2.68 12.646 12.646 0 0 1-.377-2.725 11.894 11.894 0 0 1 0-.681l.023-.733a7.215 7.215 0 0 1 .169-1.228 6.907 6.907 0 0 1 1-2.257 7.794 7.794 0 0 1 1.727-1.783 7.175 7.175 0 0 1 2.216-1.093c.43-.125.867-.209 1.3-.318a9.069 9.069 0 0 1 1.263-.117 8.864 8.864 0 0 1 4.916 1.42 11.225 11.225 0 0 1 5.286 8.867 6.222 6.222 0 0 1-1.985 4.374 4.581 4.581 0 0 1-2.159 1.062 3.722 3.722 0 0 1-2.353-.261 4.527 4.527 0 0 1-1.04-.682 4.878 4.878 0 0 1-.452-.457 5.416 5.416 0 0 1-.22-.274l-.2-.265a4.1 4.1 0 0 1-.831-2.415 4.682 4.682 0 0 1 .714-2.578 5.178 5.178 0 0 1 2.084-1.877l-.132-.332a5.487 5.487 0 0 0-3.825 4.74 5.337 5.337 0 0 0 .747 3.252 6.257 6.257 0 0 0 2.334 2.446 5.646 5.646 0 0 0 3.47.689 6.583 6.583 0 0 0 3.275-1.3 7.8 7.8 0 0 0 2.22-2.691 9.333 9.333 0 0 0 .974-3.306v-.088a11.886 11.886 0 0 0-.4-3.379 14.632 14.632 0 0 0-1.266-3.139 15.449 15.449 0 0 0-1.968-2.756 14.017 14.017 0 0 0-2.606-2.208 12.01 12.01 0 0 0-6.62-2.022 12.332 12.332 0 0 0-1.778.135c-.558.13-1.122.245-1.67.4a9.932 9.932 0 0 0-6.954 7.61 8.8 8.8 0 0 0-.16 1.794l.027.79c.011.281.028.561.055.84a15.4 15.4 0 0 0 .674 3.263 18.454 18.454 0 0 0 1.289 3c.538.965 1.11 1.825 1.7 2.69a48.657 48.657 0 0 0 1.655 2.215l-.419-.309a6.437 6.437 0 0 0-2.962-1.1 7.162 7.162 0 0 0-2.085.1 7.784 7.784 0 0 0-1.935.687 7.867 7.867 0 0 0-1.659 1.2 9.325 9.325 0 0 0-1.223 1.5 9.436 9.436 0 0 0-1.406 3.523q-.042.234-.072.486c-.02.162-.025.3-.038.452-.022.3-.045.594-.041.886a16.545 16.545 0 0 0 1.449 6.663c.433 1.011.921 1.969 1.424 2.893s1.02 1.834 1.584 2.708l1.631 2.592c.544.86 1.074 1.7 1.554 2.526a21.846 21.846 0 0 1 1.261 2.525 12 12 0 0 1 .788 2.571 8.619 8.619 0 0 1 .109 2.547 8.3 8.3 0 0 1-.7 2.427 7.4 7.4 0 0 1-3.57 3.512 8.868 8.868 0 0 1-5.243.656 10.077 10.077 0 0 1-2.595-.831 7.613 7.613 0 0 1-2.151-1.645 8.138 8.138 0 0 1-1.471-2.333 8.282 8.282 0 0 1-.591-2.758 6.145 6.145 0 0 1-.007-.718 4.05 4.05 0 0 1 .06-.7 4.815 4.815 0 0 1 .425-1.336 5.865 5.865 0 0 1 1.852-2.213l-.191-.3a6.379 6.379 0 0 0-2.321 2.15 5.675 5.675 0 0 0-.672 1.494 5.1 5.1 0 0 0-.166.809 7.4 7.4 0 0 0-.084.8 9.273 9.273 0 0 0 1.849 6.183 9.414 9.414 0 0 0 2.491 2.265 11.432 11.432 0 0 0 3.107 1.29 11.314 11.314 0 0 0 6.744-.388 10.164 10.164 0 0 0 5.206-4.583 11.4 11.4 0 0 0 1.166-3.346 11.65 11.65 0 0 0 .008-3.517 15.316 15.316 0 0 0-.854-3.282 25.238 25.238 0 0 0-1.339-2.981c-.5-.955-1.033-1.847-1.551-2.719l-1.546-2.611c-1.988-3.439-3.863-6.912-3.8-10.328a6.311 6.311 0 0 1 .023-.633c.007-.1.009-.218.02-.308s.021-.173.037-.267a5.579 5.579 0 0 1 .3-1.091 5.654 5.654 0 0 1 .516-1.014 5.862 5.862 0 0 1 .67-.881 4.111 4.111 0 0 1 .792-.605 4.045 4.045 0 0 1 .926-.356 3.471 3.471 0 0 1 .954-.071 2.964 2.964 0 0 1 .894.223 3.087 3.087 0 0 1 .408.22l.191.131a2.586 2.586 0 0 1 .207.185 5.818 5.818 0 0 1 .781.828 5.675 5.675 0 0 1 .967 2.124 20.178 20.178 0 0 1 .219 5.578 58.74 58.74 0 0 0-.083 3.106 45.6 45.6 0 0 0 .082 3.153 25.28 25.28 0 0 0 1.146 6.328 18.062 18.062 0 0 0 1.281 3.01 13.208 13.208 0 0 0 .873 1.434 11.848 11.848 0 0 0 1.074 1.316 9.683 9.683 0 0 0 1.795 1.493 9.669 9.669 0 0 0 1.5 1.789 11.862 11.862 0 0 0 1.321 1.07 13.238 13.238 0 0 0 1.439.87 18.24 18.24 0 0 0 3.021 1.277 25.478 25.478 0 0 0 6.35 1.142 45.97 45.97 0 0 0 3.163.082c1 0 2.11-.024 3.117-.083a20.392 20.392 0 0 1 5.6.218 5.7 5.7 0 0 1 2.132.964 5.876 5.876 0 0 1 .831.778 2.56 2.56 0 0 1 .185.206l.132.191a2.907 2.907 0 0 1 .22.407 2.942 2.942 0 0 1 .225.89 3.489 3.489 0 0 1-.072.951 4.043 4.043 0 0 1-.357.923 4.1 4.1 0 0 1-.607.789 5.977 5.977 0 0 1-.884.668 5.706 5.706 0 0 1-1.017.514 5.633 5.633 0 0 1-1.095.3c-.095.016-.184.028-.269.037s-.206.013-.308.02c-.21.013-.42.031-.636.023-3.428.064-6.913-1.8-10.363-3.786l-2.621-1.54c-.875-.516-1.77-1.05-2.728-1.546a25.361 25.361 0 0 0-2.991-1.333 15.421 15.421 0 0 0-3.294-.852 11.762 11.762 0 0 0-3.529.008 11.478 11.478 0 0 0-3.357 1.162 10.146 10.146 0 0 0-4.6 5.189 11.194 11.194 0 0 0-.387 6.724 11.348 11.348 0 0 0 1.293 3.1 9.453 9.453 0 0 0 2.273 2.482 9.353 9.353 0 0 0 6.2 1.843 7.45 7.45 0 0 0 .8-.084 5.034 5.034 0 0 0 .811-.166 5.653 5.653 0 0 0 1.5-.669 6.361 6.361 0 0 0 2.163-2.319l-.3-.19a5.877 5.877 0 0 1-2.22 1.845 4.812 4.812 0 0 1-1.341.424 4.083 4.083 0 0 1-.7.06 6.668 6.668 0 0 1-.721-.007 8.347 8.347 0 0 1-2.767-.59 8.166 8.166 0 0 1-2.342-1.465 7.582 7.582 0 0 1-1.649-2.141 9.983 9.983 0 0 1-.835-2.586 8.784 8.784 0 0 1 .659-5.224 7.4 7.4 0 0 1 3.537-3.567 8.384 8.384 0 0 1 2.436-.693 8.708 8.708 0 0 1 2.555.109 12.117 12.117 0 0 1 2.58.785 21.924 21.924 0 0 1 2.534 1.257c.83.478 1.672 1.006 2.535 1.548l2.6 1.626c.877.562 1.8 1.079 2.717 1.578s1.889.988 2.9 1.419a16.685 16.685 0 0 0 6.686 1.444c.294 0 .592-.019.89-.041.152-.012.29-.018.453-.037s.331-.045.488-.072a9.5 9.5 0 0 0 3.535-1.4 9.364 9.364 0 0 0 1.507-1.219 7.219 7.219 0 0 0 1.891-3.582 7.114 7.114 0 0 0 .1-2.078 6.6 6.6 0 0 0-.572-2.034 6.727 6.727 0 0 0-.528-.917l-.311-.417c.724.565 1.461 1.12 2.223 1.649.868.588 1.731 1.158 2.7 1.693a18.512 18.512 0 0 0 3.005 1.286 15.624 15.624 0 0 0 3.274.671c.28.027.561.044.843.054l.792.027a8.936 8.936 0 0 0 1.8-.158 9.932 9.932 0 0 0 6.006-3.727 9.742 9.742 0 0 0 1.627-3.2c.161-.546.277-1.108.407-1.664a12.109 12.109 0 0 0 .135-1.772 11.9 11.9 0 0 0-2.029-6.6 14 14 0 0 0-2.212-2.594Zm-40.935-.4a10.8 10.8 0 0 1 .159 2.857 11.916 11.916 0 0 1-.194 1.424 5.688 5.688 0 0 1-.458 1.219 4.714 4.714 0 0 1-4.227 2.493 5.248 5.248 0 0 1-2.793-.921 5.2 5.2 0 0 1-.924-2.783 4.693 4.693 0 0 1 2.5-4.213 5.713 5.713 0 0 1 1.225-.452 11.849 11.849 0 0 1 1.429-.193 10.925 10.925 0 0 1 2.868.158c.109.024.22.053.33.08.031.107.06.217.085.331Zm-11.468.627a25 25 0 0 1-.735-5.676 42.42 42.42 0 0 1 .036-2.937c.05-1.036.083-1.956.175-2.978a23.037 23.037 0 0 0-.119-6.553 9.775 9.775 0 0 0-.9-2.509c.659.777 1.33 1.539 2 2.3l1.98 2.314a56.52 56.52 0 0 1 3.7 4.787l1.682 2.515c.274.423.558.841.822 1.268s.5.868.731 1.308a24.959 24.959 0 0 1 1.245 2.709c.14.368.267.742.386 1.118a13.791 13.791 0 0 0-2.877-.237 13.508 13.508 0 0 0-1.607.129 7.069 7.069 0 0 0-1.666.507 6.642 6.642 0 0 0-2.642 2.23 6.5 6.5 0 0 0-1.068 2.789c-.069-.141-.139-.281-.2-.429a17.728 17.728 0 0 1-.943-2.659Zm28.636 11.033a23.309 23.309 0 0 0-6.576-.119c-1.026.092-1.949.125-2.989.174a42.72 42.72 0 0 1-2.947.037 25.227 25.227 0 0 1-5.7-.733 17.864 17.864 0 0 1-2.664-.937c-.149-.065-.289-.134-.431-.2a6.551 6.551 0 0 0 2.8-1.064 6.619 6.619 0 0 0 2.238-2.633 7.04 7.04 0 0 0 .509-1.66 13.22 13.22 0 0 0 .129-1.6 13.634 13.634 0 0 0-.238-2.868c.378.119.753.246 1.123.385a24.774 24.774 0 0 1 2.717 1.241c.442.233.881.474 1.313.728s.848.547 1.272.819l2.524 1.676a56.471 56.471 0 0 1 4.8 3.69l2.322 1.973c.764.666 1.528 1.334 2.308 1.991a9.856 9.856 0 0 0-2.51-.904ZM164.88 745.091q-5.843-.576-11.686-.709c-3.9-.083-7.791.118-11.687.313-1.948.1-3.9.174-5.843.364-1.948.162-3.9.42-5.843.651a68.636 68.636 0 0 1-11.687.574c-3.9-.15-7.791-.976-11.687-1.3a50.215 50.215 0 0 0-5.843-.142q-2.922.06-5.843.283c-1.948.146-3.9.345-5.844.62a53.675 53.675 0 0 0-5.843 1.112v.51a53.68 53.68 0 0 0 5.843 1.113c1.948.275 3.9.474 5.844.619s3.895.244 5.843.283a50 50 0 0 0 5.843-.142c3.9-.328 7.791-1.155 11.687-1.3a68.841 68.841 0 0 1 11.687.574c1.947.231 3.895.489 5.843.651 1.948.191 3.9.264 5.843.364 3.9.2 7.791.4 11.687.313s7.791-.324 11.686-.708c1.948-.194 3.9-.416 5.844-.712 1.948-.279 3.9-.6 5.843-1.05v-.51c-1.948-.445-3.9-.771-5.843-1.05a103.994 103.994 0 0 0-5.844-.721ZM549.967 141.018c-.1-1.941-.174-3.882-.366-5.824-.162-1.941-.421-3.881-.653-5.823a68.053 68.053 0 0 1-.576-11.646c.151-3.882.98-7.764 1.31-11.646a49.659 49.659 0 0 0 .142-5.823q-.058-2.912-.284-5.823a88.453 88.453 0 0 0-.621-5.823 53.308 53.308 0 0 0-1.117-5.823h-.507a53.3 53.3 0 0 0-1.116 5.823c-.276 1.941-.475 3.882-.622 5.823s-.244 3.882-.283 5.823a49.443 49.443 0 0 0 .142 5.823c.329 3.882 1.159 7.764 1.309 11.646a67.95 67.95 0 0 1-.575 11.646c-.232 1.942-.491 3.882-.654 5.823-.191 1.942-.265 3.883-.365 5.824-.2 3.882-.4 7.764-.314 11.646s.326 7.764.711 11.646c.194 1.941.417 3.882.714 5.823.28 1.941.607 3.882 1.053 5.823h.512c.447-1.941.774-3.882 1.054-5.823.3-1.941.52-3.882.714-5.823q.577-5.823.711-11.646c.079-3.882-.124-7.764-.319-11.646ZM493.601 33.76a15.486 15.486 0 0 0 2.766 1.961 14.761 14.761 0 0 0 3.15 1.262 12 12 0 0 0 3.391.4h.088a9.409 9.409 0 0 0 3.318-.97 7.83 7.83 0 0 0 2.7-2.212 6.537 6.537 0 0 0 1.3-3.265 5.59 5.59 0 0 0-.691-3.457 6.258 6.258 0 0 0-2.455-2.326 5.38 5.38 0 0 0-3.263-.744 5.5 5.5 0 0 0-4.756 3.811l.333.132a5.167 5.167 0 0 1 1.884-2.077 4.711 4.711 0 0 1 2.586-.711 4.123 4.123 0 0 1 2.423.828l.266.2c.118.088.191.147.275.219a4.659 4.659 0 0 1 .459.451 4.5 4.5 0 0 1 .685 1.036 3.7 3.7 0 0 1 .262 2.345 4.574 4.574 0 0 1-1.066 2.151 6.257 6.257 0 0 1-4.39 1.978 11.275 11.275 0 0 1-8.9-5.267 8.785 8.785 0 0 1-1.425-4.9 9 9 0 0 1 .117-1.258c.11-.43.194-.866.32-1.294a7.116 7.116 0 0 1 1.1-2.209 7.8 7.8 0 0 1 1.789-1.721 6.945 6.945 0 0 1 2.264-1 7.26 7.26 0 0 1 1.232-.168l.736-.024c.227-.006.455-.007.683 0a12.861 12.861 0 0 1 2.735.376 16.643 16.643 0 0 1 2.689.9c.848.383 1.731.864 2.591 1.349a55.233 55.233 0 0 1 5.009 3.32c.816.6 1.624 1.209 2.435 1.822l2.42 1.869c1.627 1.233 3.284 2.463 4.994 3.586l2.571 1.687c.429.281.85.573 1.286.847s.892.521 1.347.768a27.541 27.541 0 0 0 4.745 2.028 27.355 27.355 0 0 0 2.035 4.728c.247.454.5.9.771 1.343s.567.854.85 1.281l1.692 2.563c1.127 1.7 2.362 3.355 3.6 4.976l1.876 2.411c.615.809 1.23 1.615 1.827 2.428a54.557 54.557 0 0 1 3.332 4.991c.487.857.969 1.737 1.354 2.582a16.369 16.369 0 0 1 .908 2.68 12.646 12.646 0 0 1 .377 2.725c.007.227.006.454 0 .681l-.023.733a7.317 7.317 0 0 1-.169 1.228 6.907 6.907 0 0 1-1 2.257 7.794 7.794 0 0 1-1.727 1.783 7.175 7.175 0 0 1-2.216 1.093c-.43.125-.867.209-1.3.319a9.236 9.236 0 0 1-1.263.116 8.864 8.864 0 0 1-4.916-1.42 11.225 11.225 0 0 1-5.286-8.866 6.219 6.219 0 0 1 1.985-4.375 4.581 4.581 0 0 1 2.159-1.062 3.728 3.728 0 0 1 2.353.261 4.56 4.56 0 0 1 1.04.682 4.878 4.878 0 0 1 .452.457c.072.085.132.157.22.274l.2.265a4.1 4.1 0 0 1 .831 2.415 4.682 4.682 0 0 1-.714 2.578 5.178 5.178 0 0 1-2.084 1.877l.132.332a5.487 5.487 0 0 0 3.825-4.74 5.337 5.337 0 0 0-.747-3.252 6.257 6.257 0 0 0-2.334-2.446 5.646 5.646 0 0 0-3.47-.689 6.583 6.583 0 0 0-3.275 1.3 7.8 7.8 0 0 0-2.204 2.696 9.333 9.333 0 0 0-.974 3.306v.093a11.886 11.886 0 0 0 .4 3.379 14.632 14.632 0 0 0 1.266 3.139 15.449 15.449 0 0 0 1.968 2.756 14.017 14.017 0 0 0 2.606 2.208 12.01 12.01 0 0 0 6.62 2.022 12.332 12.332 0 0 0 1.778-.135c.558-.13 1.122-.245 1.67-.405a9.932 9.932 0 0 0 6.954-7.61 8.8 8.8 0 0 0 .16-1.794l-.027-.79a14.678 14.678 0 0 0-.055-.84 15.4 15.4 0 0 0-.674-3.263 18.454 18.454 0 0 0-1.289-3c-.538-.965-1.11-1.825-1.7-2.69a48.657 48.657 0 0 0-1.655-2.215l.419.31a6.7 6.7 0 0 0 .921.526 6.621 6.621 0 0 0 2.041.569 7.162 7.162 0 0 0 2.085-.1 7.784 7.784 0 0 0 1.935-.687 7.867 7.867 0 0 0 1.659-1.2 9.282 9.282 0 0 0 1.223-1.5 9.436 9.436 0 0 0 1.406-3.523q.042-.234.072-.486c.02-.162.025-.3.038-.452.022-.3.045-.594.041-.886a16.545 16.545 0 0 0-1.449-6.663c-.433-1.011-.921-1.969-1.424-2.893s-1.02-1.834-1.584-2.708l-1.631-2.592c-.544-.86-1.074-1.7-1.554-2.526a21.846 21.846 0 0 1-1.261-2.525 12 12 0 0 1-.788-2.571 8.619 8.619 0 0 1-.109-2.547 8.3 8.3 0 0 1 .695-2.427 7.4 7.4 0 0 1 3.579-3.525 8.868 8.868 0 0 1 5.243-.656 10.077 10.077 0 0 1 2.6.831 7.613 7.613 0 0 1 2.151 1.645 8.129 8.129 0 0 1 1.471 2.334 8.271 8.271 0 0 1 .591 2.757 6.373 6.373 0 0 1 .007.718 4.05 4.05 0 0 1-.06.7 4.815 4.815 0 0 1-.425 1.336 5.865 5.865 0 0 1-1.852 2.213l.191.3a6.379 6.379 0 0 0 2.321-2.15 5.675 5.675 0 0 0 .672-1.494 5.1 5.1 0 0 0 .166-.809 7.4 7.4 0 0 0 .084-.8 9.273 9.273 0 0 0-1.849-6.183 9.414 9.414 0 0 0-2.491-2.265 11.35 11.35 0 0 0-9.851-.9 10.164 10.164 0 0 0-5.206 4.583 11.4 11.4 0 0 0-1.166 3.346 11.65 11.65 0 0 0-.008 3.517 15.316 15.316 0 0 0 .854 3.282 25.238 25.238 0 0 0 1.339 2.981c.5.955 1.033 1.847 1.551 2.719l1.546 2.611c1.988 3.439 3.863 6.912 3.8 10.328a6.311 6.311 0 0 1-.023.633c-.007.1-.009.218-.02.308s-.021.173-.037.267a5.579 5.579 0 0 1-.3 1.091 5.654 5.654 0 0 1-.516 1.014 5.929 5.929 0 0 1-.67.881 4.111 4.111 0 0 1-.792.605 4.045 4.045 0 0 1-.926.356 3.471 3.471 0 0 1-.954.071 2.964 2.964 0 0 1-.894-.223 3.087 3.087 0 0 1-.408-.22l-.191-.131a2.586 2.586 0 0 1-.207-.185 5.818 5.818 0 0 1-.781-.828 5.675 5.675 0 0 1-.967-2.124 20.178 20.178 0 0 1-.219-5.578c.059-1 .079-2.113.083-3.106a45.698 45.698 0 0 0-.082-3.153 25.288 25.288 0 0 0-1.146-6.328 18.062 18.062 0 0 0-1.281-3.01 13.208 13.208 0 0 0-.873-1.434 11.848 11.848 0 0 0-1.074-1.316 9.683 9.683 0 0 0-1.795-1.493 9.669 9.669 0 0 0-1.5-1.789 11.954 11.954 0 0 0-1.321-1.07 13.238 13.238 0 0 0-1.439-.87 18.24 18.24 0 0 0-3.021-1.277 25.478 25.478 0 0 0-6.35-1.142 45.983 45.983 0 0 0-3.164-.082c-1 0-2.109.024-3.116.083a20.392 20.392 0 0 1-5.6-.218 5.7 5.7 0 0 1-2.132-.964 5.818 5.818 0 0 1-.831-.778 2.56 2.56 0 0 1-.185-.206l-.132-.191a2.907 2.907 0 0 1-.22-.407 2.942 2.942 0 0 1-.225-.89 3.489 3.489 0 0 1 .072-.951 4.043 4.043 0 0 1 .357-.923 4.1 4.1 0 0 1 .607-.789 5.977 5.977 0 0 1 .884-.668 5.681 5.681 0 0 1 2.112-.814c.095-.016.184-.028.269-.037s.206-.013.308-.02c.21-.013.42-.031.636-.023 3.428-.064 6.913 1.8 10.363 3.786l2.62 1.54c.876.516 1.771 1.05 2.729 1.546a25.361 25.361 0 0 0 2.991 1.333 15.48 15.48 0 0 0 3.294.852 11.762 11.762 0 0 0 3.529-.008 11.478 11.478 0 0 0 3.346-1.152 10.148 10.148 0 0 0 4.6-5.188 11.2 11.2 0 0 0 .388-6.72 11.348 11.348 0 0 0-1.293-3.1 9.453 9.453 0 0 0-2.273-2.482 9.353 9.353 0 0 0-6.2-1.843 7.45 7.45 0 0 0-.8.084 5.034 5.034 0 0 0-.811.166 5.653 5.653 0 0 0-1.5.669 6.361 6.361 0 0 0-2.158 2.313l.3.19a5.877 5.877 0 0 1 2.22-1.845 4.812 4.812 0 0 1 1.341-.424 4.074 4.074 0 0 1 .7-.06 6.668 6.668 0 0 1 .721.007 8.347 8.347 0 0 1 2.767.59 8.187 8.187 0 0 1 2.342 1.465 7.582 7.582 0 0 1 1.65 2.144 9.983 9.983 0 0 1 .835 2.586 8.784 8.784 0 0 1-.659 5.224 7.4 7.4 0 0 1-3.537 3.567 8.384 8.384 0 0 1-2.436.693 8.708 8.708 0 0 1-2.555-.109 12.117 12.117 0 0 1-2.58-.785 21.924 21.924 0 0 1-2.534-1.257 78.572 78.572 0 0 1-2.535-1.548l-2.6-1.626c-.877-.562-1.8-1.079-2.717-1.578s-1.889-.988-2.9-1.419a16.685 16.685 0 0 0-6.686-1.444c-.294 0-.592.019-.89.041-.152.012-.29.018-.453.037s-.331.045-.488.072a9.5 9.5 0 0 0-3.535 1.4 9.364 9.364 0 0 0-1.507 1.219 7.794 7.794 0 0 0-1.2 1.654 7.688 7.688 0 0 0-.69 1.928 7.114 7.114 0 0 0-.1 2.078 6.6 6.6 0 0 0 .572 2.034 6.727 6.727 0 0 0 .528.917l.311.417a49.544 49.544 0 0 0-2.223-1.649c-.868-.588-1.731-1.158-2.7-1.693a18.512 18.512 0 0 0-3-1.286 15.624 15.624 0 0 0-3.274-.671c-.28-.027-.561-.044-.843-.054l-.792-.027a8.936 8.936 0 0 0-1.8.158 9.932 9.932 0 0 0-6.009 3.726 9.752 9.752 0 0 0-1.627 3.2c-.161.546-.277 1.108-.407 1.664a12.109 12.109 0 0 0-.135 1.772 11.9 11.9 0 0 0 2.029 6.6 13.958 13.958 0 0 0 2.2 2.598Zm40.935.4a10.8 10.8 0 0 1-.159-2.857 11.944 11.944 0 0 1 .194-1.424 5.688 5.688 0 0 1 .454-1.221 4.71 4.71 0 0 1 4.227-2.492 5.238 5.238 0 0 1 2.793.92 5.2 5.2 0 0 1 .924 2.783 4.693 4.693 0 0 1-2.5 4.213 5.713 5.713 0 0 1-1.225.452 11.849 11.849 0 0 1-1.429.193 10.925 10.925 0 0 1-2.868-.158c-.109-.024-.22-.053-.33-.079-.028-.111-.057-.221-.081-.335Zm11.468-.627a25 25 0 0 1 .735 5.676 42.42 42.42 0 0 1-.036 2.937c-.05 1.036-.083 1.956-.175 2.978a23.037 23.037 0 0 0 .119 6.553 9.761 9.761 0 0 0 .9 2.509c-.659-.777-1.33-1.539-2-2.3l-1.98-2.314a56.52 56.52 0 0 1-3.7-4.787l-1.682-2.515c-.274-.423-.558-.841-.822-1.268s-.5-.868-.731-1.308a24.959 24.959 0 0 1-1.245-2.709c-.14-.368-.267-.742-.386-1.118a13.791 13.791 0 0 0 2.877.237 13.507 13.507 0 0 0 1.607-.128 7.164 7.164 0 0 0 1.666-.507 6.647 6.647 0 0 0 2.642-2.232 6.486 6.486 0 0 0 1.068-2.788c.069.141.139.281.2.429a17.728 17.728 0 0 1 .943 2.654Zm-28.636-11.034a23.309 23.309 0 0 0 6.576.119c1.026-.092 1.949-.125 2.989-.174a42.72 42.72 0 0 1 2.947-.037 25.227 25.227 0 0 1 5.7.733 17.864 17.864 0 0 1 2.664.937c.149.065.289.134.431.2a6.551 6.551 0 0 0-2.8 1.064 6.636 6.636 0 0 0-2.239 2.633 7.085 7.085 0 0 0-.508 1.66 13.22 13.22 0 0 0-.129 1.6 13.63 13.63 0 0 0 .238 2.867 21.84 21.84 0 0 1-1.123-.385 24.774 24.774 0 0 1-2.717-1.241c-.442-.233-.881-.474-1.313-.728s-.848-.547-1.272-.819l-2.527-1.673a56.471 56.471 0 0 1-4.8-3.69l-2.322-1.973c-.764-.666-1.528-1.334-2.308-1.991a9.856 9.856 0 0 0 2.513.898ZM474.463 19.616q-2.922-.22-5.843-.283a50 50 0 0 0-5.843.142c-3.9.328-7.791 1.155-11.687 1.3a68.841 68.841 0 0 1-11.687-.574c-1.947-.231-3.9-.489-5.843-.651-1.948-.191-3.9-.264-5.843-.364-3.9-.2-7.791-.4-11.687-.313s-7.791.324-11.686.709c-1.948.193-3.9.415-5.844.711-1.948.279-3.895.605-5.843 1.05v.51c1.948.445 3.9.771 5.843 1.05 1.948.3 3.9.518 5.844.711q5.842.576 11.686.709c3.9.083 7.791-.118 11.687-.313 1.947-.1 3.895-.174 5.843-.364 1.948-.162 3.9-.42 5.843-.651a68.636 68.636 0 0 1 11.687-.574c3.9.15 7.791.976 11.687 1.3a50.215 50.215 0 0 0 5.843.142q2.922-.06 5.843-.283c1.948-.146 3.9-.345 5.844-.62a53.675 53.675 0 0 0 5.843-1.112v-.51a53.92 53.92 0 0 0-5.843-1.113 96.44 96.44 0 0 0-5.844-.609ZM569.12 742.534a5.1 5.1 0 0 0-.166-.809 5.675 5.675 0 0 0-.672-1.494 6.379 6.379 0 0 0-2.321-2.15l-.191.3a5.865 5.865 0 0 1 1.852 2.213 4.815 4.815 0 0 1 .425 1.336 4.05 4.05 0 0 1 .06.7 6.373 6.373 0 0 1-.007.718 8.282 8.282 0 0 1-.591 2.758 8.138 8.138 0 0 1-1.471 2.333 7.613 7.613 0 0 1-2.151 1.645 10.077 10.077 0 0 1-2.6.831 8.868 8.868 0 0 1-5.243-.656 7.4 7.4 0 0 1-3.579-3.525 8.3 8.3 0 0 1-.695-2.427 8.619 8.619 0 0 1 .109-2.547 12 12 0 0 1 .788-2.571 21.846 21.846 0 0 1 1.261-2.525c.48-.827 1.01-1.666 1.554-2.526l1.631-2.592c.564-.874 1.083-1.792 1.584-2.708s.991-1.882 1.424-2.893a16.545 16.545 0 0 0 1.449-6.663c0-.292-.019-.59-.041-.886-.013-.152-.018-.29-.038-.452s-.044-.33-.072-.486a9.436 9.436 0 0 0-1.406-3.523 9.325 9.325 0 0 0-1.223-1.5 7.867 7.867 0 0 0-1.659-1.2 7.784 7.784 0 0 0-1.935-.687 7.162 7.162 0 0 0-2.085-.1 6.437 6.437 0 0 0-2.962 1.1l-.419.309a48.657 48.657 0 0 0 1.655-2.215c.59-.865 1.162-1.725 1.7-2.69a18.454 18.454 0 0 0 1.289-3 15.4 15.4 0 0 0 .674-3.263c.027-.279.044-.559.055-.84l.027-.79a8.8 8.8 0 0 0-.16-1.794 9.932 9.932 0 0 0-6.954-7.61c-.548-.16-1.112-.275-1.67-.4a12.332 12.332 0 0 0-1.778-.135 12.01 12.01 0 0 0-6.62 2.022 14.017 14.017 0 0 0-2.606 2.208 15.449 15.449 0 0 0-1.968 2.756 14.632 14.632 0 0 0-1.266 3.139 11.886 11.886 0 0 0-.4 3.379v.088a9.333 9.333 0 0 0 .974 3.306 7.8 7.8 0 0 0 2.22 2.691 6.583 6.583 0 0 0 3.275 1.3 5.646 5.646 0 0 0 3.47-.689 6.257 6.257 0 0 0 2.334-2.446 5.337 5.337 0 0 0 .747-3.252 5.487 5.487 0 0 0-3.825-4.74l-.132.332a5.178 5.178 0 0 1 2.084 1.877 4.682 4.682 0 0 1 .714 2.578 4.1 4.1 0 0 1-.831 2.415l-.2.265a5.416 5.416 0 0 1-.22.274 4.878 4.878 0 0 1-.452.457 4.527 4.527 0 0 1-1.04.682 3.722 3.722 0 0 1-2.353.261 4.581 4.581 0 0 1-2.159-1.062 6.218 6.218 0 0 1-1.985-4.374 11.225 11.225 0 0 1 5.286-8.867 8.864 8.864 0 0 1 4.916-1.42 9.083 9.083 0 0 1 1.263.117c.431.109.868.193 1.3.318a7.175 7.175 0 0 1 2.216 1.093 7.794 7.794 0 0 1 1.727 1.783 6.907 6.907 0 0 1 1 2.257 7.317 7.317 0 0 1 .169 1.228l.023.733c.007.227.008.454 0 .681a12.646 12.646 0 0 1-.377 2.725 16.369 16.369 0 0 1-.908 2.68c-.385.845-.867 1.725-1.354 2.582a54.557 54.557 0 0 1-3.332 4.991c-.6.813-1.212 1.619-1.827 2.428l-1.876 2.411c-1.237 1.621-2.472 3.272-3.6 4.976l-1.692 2.563c-.283.427-.576.846-.85 1.281s-.524.889-.771 1.343a27.355 27.355 0 0 0-2.035 4.728 27.541 27.541 0 0 0-4.745 2.028c-.455.247-.906.5-1.347.768s-.857.566-1.286.847l-2.571 1.687c-1.71 1.123-3.367 2.353-4.994 3.586l-2.42 1.869c-.811.613-1.619 1.226-2.435 1.822a55.233 55.233 0 0 1-5.009 3.32c-.86.485-1.743.966-2.591 1.349a16.643 16.643 0 0 1-2.689.9 12.861 12.861 0 0 1-2.735.376c-.228.007-.456 0-.683 0l-.736-.024a7.26 7.26 0 0 1-1.232-.168 6.945 6.945 0 0 1-2.264-1 7.8 7.8 0 0 1-1.789-1.721 7.116 7.116 0 0 1-1.1-2.209c-.126-.428-.21-.864-.32-1.294a9 9 0 0 1-.117-1.258 8.785 8.785 0 0 1 1.425-4.9 11.275 11.275 0 0 1 8.9-5.267 6.257 6.257 0 0 1 4.39 1.978 4.574 4.574 0 0 1 1.066 2.151 3.7 3.7 0 0 1-.262 2.345 4.5 4.5 0 0 1-.685 1.036 4.659 4.659 0 0 1-.459.451 4.337 4.337 0 0 1-.275.219l-.266.2a4.131 4.131 0 0 1-2.423.829 4.721 4.721 0 0 1-2.586-.712 5.167 5.167 0 0 1-1.884-2.077l-.333.132a5.5 5.5 0 0 0 4.756 3.811 5.387 5.387 0 0 0 3.263-.743 6.268 6.268 0 0 0 2.455-2.327 5.59 5.59 0 0 0 .691-3.457 6.537 6.537 0 0 0-1.3-3.265 7.83 7.83 0 0 0-2.7-2.212 9.409 9.409 0 0 0-3.318-.97h-.088a12 12 0 0 0-3.391.4 14.761 14.761 0 0 0-3.15 1.262 15.486 15.486 0 0 0-2.766 1.961 13.958 13.958 0 0 0-2.215 2.6 11.9 11.9 0 0 0-2.029 6.6 12.109 12.109 0 0 0 .135 1.772c.13.556.246 1.118.407 1.664a9.742 9.742 0 0 0 1.627 3.2 9.932 9.932 0 0 0 6.009 3.726 8.936 8.936 0 0 0 1.8.158l.792-.027c.282-.01.563-.027.843-.054a15.624 15.624 0 0 0 3.274-.671 18.512 18.512 0 0 0 3-1.286c.969-.535 1.832-1.1 2.7-1.693.762-.529 1.5-1.084 2.223-1.649l-.311.417a6.727 6.727 0 0 0-.528.917 6.6 6.6 0 0 0-.572 2.034 7.114 7.114 0 0 0 .1 2.078 7.688 7.688 0 0 0 .69 1.928 7.794 7.794 0 0 0 1.2 1.654 9.364 9.364 0 0 0 1.507 1.219 9.5 9.5 0 0 0 3.535 1.4c.157.027.32.052.488.072s.3.025.453.037c.3.022.6.046.89.041a16.685 16.685 0 0 0 6.686-1.444c1.014-.431 1.976-.918 2.9-1.419s1.84-1.016 2.717-1.578l2.6-1.626a78.572 78.572 0 0 1 2.535-1.548 21.924 21.924 0 0 1 2.534-1.257 12.117 12.117 0 0 1 2.58-.785 8.708 8.708 0 0 1 2.555-.109 8.384 8.384 0 0 1 2.436.693 7.4 7.4 0 0 1 3.537 3.567 8.784 8.784 0 0 1 .659 5.224 9.983 9.983 0 0 1-.835 2.586 7.582 7.582 0 0 1-1.65 2.144 8.166 8.166 0 0 1-2.342 1.465 8.347 8.347 0 0 1-2.767.59 6.668 6.668 0 0 1-.721.007 4.074 4.074 0 0 1-.7-.06 4.812 4.812 0 0 1-1.341-.424 5.877 5.877 0 0 1-2.22-1.845l-.3.19a6.361 6.361 0 0 0 2.158 2.313 5.653 5.653 0 0 0 1.5.669 5.034 5.034 0 0 0 .811.166 7.45 7.45 0 0 0 .8.084 9.353 9.353 0 0 0 6.2-1.843 9.453 9.453 0 0 0 2.273-2.482 11.348 11.348 0 0 0 1.293-3.1 11.194 11.194 0 0 0-.388-6.719 10.146 10.146 0 0 0-4.6-5.189 11.478 11.478 0 0 0-3.357-1.162 11.762 11.762 0 0 0-3.529-.008 15.421 15.421 0 0 0-3.294.852 25.361 25.361 0 0 0-2.991 1.333c-.958.5-1.853 1.03-2.729 1.546l-2.62 1.54c-3.45 1.982-6.935 3.85-10.363 3.786-.216.008-.426-.01-.636-.023-.1-.007-.218-.01-.308-.02s-.174-.021-.269-.037a5.681 5.681 0 0 1-2.112-.814 5.977 5.977 0 0 1-.884-.668 4.1 4.1 0 0 1-.607-.789 4.043 4.043 0 0 1-.357-.923 3.489 3.489 0 0 1-.072-.951 2.942 2.942 0 0 1 .225-.89 2.907 2.907 0 0 1 .22-.407l.132-.191a2.56 2.56 0 0 1 .185-.206 5.876 5.876 0 0 1 .831-.778 5.7 5.7 0 0 1 2.132-.964 20.392 20.392 0 0 1 5.6-.218c1.007.059 2.12.079 3.116.083 1.048.006 2.1-.015 3.164-.082a25.478 25.478 0 0 0 6.35-1.142 18.24 18.24 0 0 0 3.021-1.277 13.238 13.238 0 0 0 1.439-.87 11.954 11.954 0 0 0 1.321-1.07 12.992 12.992 0 0 1 3.293-3.282 11.848 11.848 0 0 0 1.074-1.316 13.208 13.208 0 0 0 .873-1.434 18.062 18.062 0 0 0 1.281-3.01 25.28 25.28 0 0 0 1.146-6.328c.067-1.058.088-2.109.082-3.153 0-.993-.024-2.1-.083-3.106a20.178 20.178 0 0 1 .219-5.578 5.675 5.675 0 0 1 .967-2.124 5.818 5.818 0 0 1 .781-.828 2.586 2.586 0 0 1 .207-.185l.191-.131a3.087 3.087 0 0 1 .408-.22 2.964 2.964 0 0 1 .894-.223 3.471 3.471 0 0 1 .954.071 4.045 4.045 0 0 1 .926.356 4.111 4.111 0 0 1 .792.605 5.929 5.929 0 0 1 .67.881 5.654 5.654 0 0 1 .516 1.014 5.579 5.579 0 0 1 .3 1.091c.016.094.028.183.037.267s.013.206.02.308a6.311 6.311 0 0 1 .023.633c.065 3.416-1.81 6.889-3.8 10.328l-1.546 2.611c-.518.872-1.054 1.764-1.551 2.719a25.238 25.238 0 0 0-1.339 2.981 15.316 15.316 0 0 0-.854 3.282 11.65 11.65 0 0 0 .008 3.517 11.4 11.4 0 0 0 1.166 3.346 10.164 10.164 0 0 0 5.206 4.583 11.35 11.35 0 0 0 9.851-.9 9.414 9.414 0 0 0 2.491-2.265 9.273 9.273 0 0 0 1.849-6.183 7.4 7.4 0 0 0-.072-.791Zm-34.174-8.392a10.925 10.925 0 0 1 2.868-.158 11.849 11.849 0 0 1 1.429.193 5.713 5.713 0 0 1 1.225.452 4.693 4.693 0 0 1 2.5 4.213 3.269 3.269 0 0 1-3.717 3.7 4.714 4.714 0 0 1-4.227-2.493 5.688 5.688 0 0 1-.454-1.221 11.916 11.916 0 0 1-.194-1.424 10.8 10.8 0 0 1 .159-2.857c.024-.11.053-.22.08-.329.111-.023.222-.052.331-.076Zm.63 11.428a25.227 25.227 0 0 1-5.7.733 42.72 42.72 0 0 1-2.947-.037c-1.04-.049-1.963-.082-2.989-.174a23.309 23.309 0 0 0-6.576.119 9.856 9.856 0 0 0-2.517.9c.78-.657 1.544-1.325 2.308-1.991l2.322-1.973a56.471 56.471 0 0 1 4.8-3.69l2.524-1.676c.424-.272.843-.556 1.272-.819s.871-.5 1.313-.728a24.774 24.774 0 0 1 2.717-1.241c.37-.139.745-.266 1.123-.385a13.634 13.634 0 0 0-.238 2.868 13.22 13.22 0 0 0 .129 1.6 7.085 7.085 0 0 0 .508 1.66 6.63 6.63 0 0 0 2.239 2.633 6.551 6.551 0 0 0 2.8 1.064c-.142.069-.282.138-.431.2a17.864 17.864 0 0 1-2.657.937Zm11.071-28.536a23.037 23.037 0 0 0-.119 6.553c.092 1.022.125 1.942.175 2.978.043.986.061 1.966.036 2.937a25 25 0 0 1-.735 5.676 17.728 17.728 0 0 1-.94 2.655c-.065.148-.135.288-.2.429a6.5 6.5 0 0 0-1.068-2.789 6.642 6.642 0 0 0-2.642-2.23 7.069 7.069 0 0 0-1.666-.507 13.508 13.508 0 0 0-1.607-.129 13.791 13.791 0 0 0-2.877.237c.119-.376.246-.75.386-1.118a24.959 24.959 0 0 1 1.245-2.709c.234-.44.476-.877.731-1.308s.548-.845.822-1.268l1.682-2.515a56.52 56.52 0 0 1 3.7-4.787l1.98-2.314c.668-.761 1.339-1.523 2-2.3a9.775 9.775 0 0 0-.903 2.509ZM549.601 633.516c.192-1.942.265-3.883.366-5.824.195-3.882.4-7.764.314-11.646s-.326-7.764-.711-11.646a112.235 112.235 0 0 0-.714-5.823c-.28-1.941-.607-3.882-1.054-5.823h-.507c-.446 1.941-.773 3.882-1.053 5.823-.3 1.941-.52 3.882-.714 5.823q-.577 5.823-.711 11.646c-.084 3.882.118 7.764.314 11.646.1 1.941.174 3.882.365 5.824.163 1.941.422 3.881.654 5.823a67.95 67.95 0 0 1 .575 11.646c-.15 3.882-.98 7.764-1.309 11.646a49.443 49.443 0 0 0-.142 5.823q.059 2.911.283 5.823c.147 1.941.346 3.882.622 5.823a53.3 53.3 0 0 0 1.116 5.823h.512a53.308 53.308 0 0 0 1.117-5.823c.276-1.941.475-3.882.621-5.823s.245-3.882.284-5.823a49.659 49.659 0 0 0-.142-5.823c-.33-3.882-1.159-7.764-1.31-11.646a68.053 68.053 0 0 1 .576-11.646c.227-1.942.486-3.884.648-5.823ZM474.463 745.12q-2.922-.219-5.843-.283a50.215 50.215 0 0 0-5.843.142c-3.9.329-7.791 1.155-11.687 1.3a68.636 68.636 0 0 1-11.687-.574c-1.947-.231-3.9-.489-5.843-.651-1.948-.19-3.9-.264-5.843-.364-3.9-.2-7.791-.4-11.687-.313s-7.791.325-11.686.709c-1.948.193-3.9.416-5.844.711-1.948.279-3.895.605-5.843 1.05v.51c1.948.446 3.9.771 5.843 1.05 1.948.3 3.9.518 5.844.712q5.842.576 11.686.708c3.9.084 7.791-.118 11.687-.313 1.947-.1 3.895-.173 5.843-.364 1.948-.162 3.9-.42 5.843-.651a68.841 68.841 0 0 1 11.687-.574c3.9.15 7.791.977 11.687 1.3a50 50 0 0 0 5.843.142q2.922-.059 5.843-.283c1.948-.145 3.9-.344 5.844-.619a53.68 53.68 0 0 0 5.843-1.113v-.51a53.675 53.675 0 0 0-5.843-1.112 97.254 97.254 0 0 0-5.844-.61ZM19.623 135.194c-.192 1.942-.265 3.883-.366 5.824-.2 3.882-.4 7.764-.314 11.646s.326 7.764.711 11.646c.194 1.941.417 3.882.714 5.823.28 1.941.607 3.882 1.054 5.823h.512c.446-1.941.773-3.882 1.053-5.823.3-1.941.52-3.882.714-5.823q.578-5.823.711-11.646c.084-3.882-.118-7.764-.314-11.646-.1-1.941-.174-3.882-.365-5.824-.163-1.941-.422-3.881-.654-5.823a67.95 67.95 0 0 1-.575-11.646c.15-3.882.98-7.764 1.309-11.646a49.659 49.659 0 0 0 .142-5.823q-.059-2.912-.283-5.823a89.143 89.143 0 0 0-.622-5.823 53.541 53.541 0 0 0-1.116-5.823h-.512a53.308 53.308 0 0 0-1.117 5.823c-.276 1.941-.475 3.882-.621 5.823s-.245 3.882-.284 5.823a49.659 49.659 0 0 0 .142 5.823c.33 3.882 1.159 7.764 1.31 11.646a68.053 68.053 0 0 1-.576 11.646c-.232 1.942-.491 3.884-.653 5.823ZM79.325 21.13a9.752 9.752 0 0 0-1.63-3.205 9.932 9.932 0 0 0-6.009-3.726 8.936 8.936 0 0 0-1.8-.158l-.792.027c-.282.01-.563.027-.843.054a15.624 15.624 0 0 0-3.274.671 18.512 18.512 0 0 0-3.005 1.286c-.969.535-1.832 1.105-2.7 1.693-.762.529-1.5 1.084-2.223 1.649l.311-.417a6.727 6.727 0 0 0 .528-.917 6.6 6.6 0 0 0 .572-2.034 7.114 7.114 0 0 0-.1-2.078 7.219 7.219 0 0 0-1.891-3.582 9.364 9.364 0 0 0-1.507-1.219 9.5 9.5 0 0 0-3.535-1.4c-.157-.027-.32-.052-.488-.072s-.3-.025-.453-.037c-.3-.022-.6-.046-.89-.041a16.685 16.685 0 0 0-6.686 1.444c-1.014.431-1.976.918-2.9 1.419s-1.84 1.016-2.717 1.578l-2.598 1.625c-.863.542-1.7 1.07-2.535 1.548a21.924 21.924 0 0 1-2.534 1.257 12.117 12.117 0 0 1-2.58.785 8.708 8.708 0 0 1-2.555.109 8.384 8.384 0 0 1-2.436-.693 7.4 7.4 0 0 1-3.537-3.567 8.784 8.784 0 0 1-.659-5.224 9.983 9.983 0 0 1 .836-2.586 7.582 7.582 0 0 1 1.65-2.144 8.187 8.187 0 0 1 2.342-1.465 8.347 8.347 0 0 1 2.767-.59 6.668 6.668 0 0 1 .721-.007 4.083 4.083 0 0 1 .7.06 4.812 4.812 0 0 1 1.341.424 5.877 5.877 0 0 1 2.22 1.845l.3-.19A6.361 6.361 0 0 0 28.578.939a5.653 5.653 0 0 0-1.5-.669 5.034 5.034 0 0 0-.811-.166 7.45 7.45 0 0 0-.8-.084 9.353 9.353 0 0 0-6.2 1.843 9.453 9.453 0 0 0-2.282 2.482 11.348 11.348 0 0 0-1.29 3.097 11.2 11.2 0 0 0 .388 6.72 10.148 10.148 0 0 0 4.597 5.193 11.478 11.478 0 0 0 3.357 1.162 11.762 11.762 0 0 0 3.529.008 15.48 15.48 0 0 0 3.294-.852 25.361 25.361 0 0 0 2.991-1.333c.958-.5 1.853-1.03 2.728-1.546l2.621-1.54c3.45-1.982 6.935-3.85 10.363-3.786.216-.008.426.01.636.023.1.007.218.01.308.02s.174.021.269.037a5.633 5.633 0 0 1 1.095.3 5.706 5.706 0 0 1 1.017.507 5.977 5.977 0 0 1 .884.668 4.1 4.1 0 0 1 .607.789 4.043 4.043 0 0 1 .357.923 3.489 3.489 0 0 1 .072.951 2.942 2.942 0 0 1-.225.89 2.907 2.907 0 0 1-.22.407l-.132.191a2.56 2.56 0 0 1-.185.206 5.818 5.818 0 0 1-.831.778 5.7 5.7 0 0 1-2.132.964 20.392 20.392 0 0 1-5.6.218 60.344 60.344 0 0 0-3.117-.083c-1.047-.006-2.1.015-3.163.082a25.478 25.478 0 0 0-6.35 1.142 18.24 18.24 0 0 0-3.021 1.277 13.238 13.238 0 0 0-1.439.87 11.862 11.862 0 0 0-1.321 1.07 9.669 9.669 0 0 0-1.5 1.789 9.683 9.683 0 0 0-1.795 1.493 11.848 11.848 0 0 0-1.074 1.316 13.208 13.208 0 0 0-.873 1.434 18.062 18.062 0 0 0-1.281 3.01 25.288 25.288 0 0 0-1.146 6.328 45.698 45.698 0 0 0-.082 3.153c0 .993.024 2.1.083 3.106a20.178 20.178 0 0 1-.219 5.578 5.675 5.675 0 0 1-.967 2.124 5.818 5.818 0 0 1-.781.828 2.586 2.586 0 0 1-.207.185l-.191.131a3.087 3.087 0 0 1-.408.22 2.964 2.964 0 0 1-.894.223 3.471 3.471 0 0 1-.954-.071 4.045 4.045 0 0 1-.926-.356 4.111 4.111 0 0 1-.792-.605 5.862 5.862 0 0 1-.67-.881 5.654 5.654 0 0 1-.516-1.014 5.579 5.579 0 0 1-.3-1.091c-.016-.094-.028-.183-.037-.267s-.013-.206-.02-.308a6.311 6.311 0 0 1-.023-.633c-.065-3.416 1.81-6.889 3.8-10.328l1.548-2.607c.518-.872 1.054-1.764 1.551-2.719a25.238 25.238 0 0 0 1.339-2.981 15.316 15.316 0 0 0 .854-3.282 11.65 11.65 0 0 0-.008-3.517 11.4 11.4 0 0 0-1.166-3.346 10.164 10.164 0 0 0-5.206-4.583 11.314 11.314 0 0 0-6.744-.388 11.432 11.432 0 0 0-3.107 1.29 9.414 9.414 0 0 0-2.491 2.265A9.273 9.273 0 0 0 .02 25.377a7.4 7.4 0 0 0 .084.8 5.1 5.1 0 0 0 .166.809 5.675 5.675 0 0 0 .672 1.494 6.379 6.379 0 0 0 2.321 2.15l.191-.3a5.865 5.865 0 0 1-1.852-2.213 4.815 4.815 0 0 1-.425-1.336 4.05 4.05 0 0 1-.06-.7 6.145 6.145 0 0 1 .007-.718 8.271 8.271 0 0 1 .591-2.757 8.129 8.129 0 0 1 1.471-2.334 7.613 7.613 0 0 1 2.151-1.645 10.077 10.077 0 0 1 2.595-.831 8.868 8.868 0 0 1 5.243.656 7.4 7.4 0 0 1 3.579 3.525 8.3 8.3 0 0 1 .7 2.427 8.619 8.619 0 0 1-.109 2.547 12 12 0 0 1-.788 2.571 21.846 21.846 0 0 1-1.262 2.525c-.48.827-1.01 1.666-1.554 2.526l-1.635 2.592c-.564.874-1.083 1.792-1.584 2.708s-.991 1.882-1.427 2.893a16.545 16.545 0 0 0-1.449 6.663c0 .292.019.59.041.886.013.152.018.29.038.452s.044.33.072.486a9.436 9.436 0 0 0 1.406 3.523 9.282 9.282 0 0 0 1.223 1.5 7.867 7.867 0 0 0 1.659 1.2 7.784 7.784 0 0 0 1.935.687 7.162 7.162 0 0 0 2.085.1 6.621 6.621 0 0 0 2.041-.569 6.7 6.7 0 0 0 .921-.526l.419-.31a48.657 48.657 0 0 0-1.655 2.215c-.59.865-1.162 1.725-1.7 2.69a18.454 18.454 0 0 0-1.289 3 15.4 15.4 0 0 0-.674 3.263c-.027.279-.044.559-.055.84l-.027.79a8.8 8.8 0 0 0 .16 1.794 9.932 9.932 0 0 0 6.954 7.61c.548.16 1.112.275 1.67.405a12.332 12.332 0 0 0 1.778.135 12.01 12.01 0 0 0 6.62-2.022 14.017 14.017 0 0 0 2.606-2.208 15.449 15.449 0 0 0 1.971-2.765 14.632 14.632 0 0 0 1.266-3.139 11.886 11.886 0 0 0 .4-3.379v-.093a9.333 9.333 0 0 0-.974-3.306 7.8 7.8 0 0 0-2.22-2.691 6.583 6.583 0 0 0-3.275-1.3 5.646 5.646 0 0 0-3.47.689 6.257 6.257 0 0 0-2.334 2.446 5.337 5.337 0 0 0-.747 3.252 5.487 5.487 0 0 0 3.825 4.74l.132-.332a5.178 5.178 0 0 1-2.084-1.877 4.682 4.682 0 0 1-.714-2.578 4.1 4.1 0 0 1 .831-2.415l.2-.265c.088-.117.148-.189.22-.274a4.878 4.878 0 0 1 .452-.457 4.56 4.56 0 0 1 1.04-.682 3.728 3.728 0 0 1 2.353-.261 4.581 4.581 0 0 1 2.159 1.062 6.223 6.223 0 0 1 1.99 4.375 11.225 11.225 0 0 1-5.286 8.866 8.864 8.864 0 0 1-4.916 1.42 9.222 9.222 0 0 1-1.263-.116c-.431-.11-.868-.194-1.3-.319a7.175 7.175 0 0 1-2.216-1.093 7.794 7.794 0 0 1-1.727-1.783 6.907 6.907 0 0 1-1-2.257 7.215 7.215 0 0 1-.169-1.228l-.023-.733a10.309 10.309 0 0 1 0-.681 12.646 12.646 0 0 1 .377-2.725 16.369 16.369 0 0 1 .908-2.68c.385-.845.867-1.725 1.354-2.582a54.752 54.752 0 0 1 3.331-4.991c.6-.813 1.213-1.619 1.828-2.428l1.876-2.411c1.237-1.621 2.472-3.272 3.6-4.976l1.692-2.563c.283-.427.576-.846.85-1.281s.524-.889.771-1.343a27.355 27.355 0 0 0 2.035-4.728 27.541 27.541 0 0 0 4.745-2.028c.455-.247.906-.5 1.347-.768s.857-.566 1.286-.847l2.565-1.69c1.71-1.123 3.367-2.353 4.994-3.586l2.42-1.869c.811-.613 1.619-1.226 2.435-1.822a55.233 55.233 0 0 1 5.009-3.32c.86-.485 1.743-.966 2.591-1.349a16.643 16.643 0 0 1 2.689-.9 12.861 12.861 0 0 1 2.735-.376c.228-.006.456 0 .683 0l.736.024a7.26 7.26 0 0 1 1.232.168 6.945 6.945 0 0 1 2.264 1 7.8 7.8 0 0 1 1.789 1.721 7.116 7.116 0 0 1 1.1 2.209c.126.428.21.864.32 1.294a9.151 9.151 0 0 1 .117 1.258 8.785 8.785 0 0 1-1.425 4.9 11.275 11.275 0 0 1-8.9 5.267 6.257 6.257 0 0 1-4.39-1.978 4.574 4.574 0 0 1-1.064-2.156 3.7 3.7 0 0 1 .262-2.345 4.5 4.5 0 0 1 .685-1.036 4.76 4.76 0 0 1 .458-.451c.085-.072.158-.131.275-.219l.267-.2a4.123 4.123 0 0 1 2.423-.828 4.711 4.711 0 0 1 2.586.711 5.167 5.167 0 0 1 1.884 2.077l.333-.132a5.5 5.5 0 0 0-4.756-3.811 5.38 5.38 0 0 0-3.263.744 6.258 6.258 0 0 0-2.454 2.323 5.59 5.59 0 0 0-.691 3.457 6.537 6.537 0 0 0 1.3 3.265 7.83 7.83 0 0 0 2.7 2.212 9.409 9.409 0 0 0 3.318.97h.088a12 12 0 0 0 3.391-.4 14.782 14.782 0 0 0 3.15-1.262 15.486 15.486 0 0 0 2.766-1.961 14 14 0 0 0 2.215-2.6 11.9 11.9 0 0 0 2.029-6.6 12.109 12.109 0 0 0-.135-1.772c-.124-.544-.24-1.106-.401-1.652ZM34.688 34.155c-.025.11-.054.22-.08.33-.11.026-.221.055-.33.079a10.925 10.925 0 0 1-2.868.158 11.849 11.849 0 0 1-1.429-.193 5.713 5.713 0 0 1-1.225-.452 4.693 4.693 0 0 1-2.5-4.213 5.2 5.2 0 0 1 .924-2.783 5.238 5.238 0 0 1 2.793-.92 4.71 4.71 0 0 1 4.222 2.494 5.688 5.688 0 0 1 .454 1.221 11.944 11.944 0 0 1 .194 1.424 10.8 10.8 0 0 1-.155 2.855Zm-2.093 5.538c-.234.44-.476.877-.731 1.308s-.548.845-.822 1.268l-1.682 2.515a56.52 56.52 0 0 1-3.7 4.787l-1.98 2.314c-.668.761-1.339 1.523-2 2.3a9.761 9.761 0 0 0 .9-2.509 23.037 23.037 0 0 0 .115-6.553c-.092-1.022-.125-1.942-.175-2.978a42.42 42.42 0 0 1-.036-2.937 25 25 0 0 1 .735-5.676 17.728 17.728 0 0 1 .94-2.655c.065-.148.135-.288.2-.429a6.486 6.486 0 0 0 1.068 2.788 6.647 6.647 0 0 0 2.642 2.232 7.164 7.164 0 0 0 1.666.507 13.507 13.507 0 0 0 1.607.128 13.791 13.791 0 0 0 2.877-.237c-.119.376-.246.75-.386 1.118a24.959 24.959 0 0 1-1.238 2.709Zm19.472-16.1-2.322 1.973a56.471 56.471 0 0 1-4.8 3.69l-2.53 1.677c-.424.272-.843.556-1.272.819s-.871.5-1.313.728a24.774 24.774 0 0 1-2.717 1.241c-.37.139-.745.266-1.123.385a13.63 13.63 0 0 0 .238-2.867 13.22 13.22 0 0 0-.129-1.6 7.04 7.04 0 0 0-.509-1.66 6.626 6.626 0 0 0-2.238-2.633 6.551 6.551 0 0 0-2.8-1.064c.142-.069.282-.138.431-.2a17.864 17.864 0 0 1 2.664-.937 25.227 25.227 0 0 1 5.7-.733 42.72 42.72 0 0 1 2.947.037c1.04.049 1.963.082 2.989.174a23.309 23.309 0 0 0 6.576-.119 9.856 9.856 0 0 0 2.517-.9c-.781.656-1.547 1.324-2.311 1.99ZM164.88 19.587q-5.843-.577-11.686-.709c-3.9-.084-7.791.118-11.687.313-1.948.1-3.9.173-5.843.364-1.948.162-3.9.42-5.843.651a68.841 68.841 0 0 1-11.687.574c-3.9-.15-7.791-.977-11.687-1.3a50 50 0 0 0-5.843-.142q-2.922.058-5.843.283c-1.948.145-3.9.344-5.844.619a53.92 53.92 0 0 0-5.843 1.113v.51a53.675 53.675 0 0 0 5.843 1.112c1.948.275 3.9.474 5.844.62s3.895.243 5.843.283a50.215 50.215 0 0 0 5.843-.142c3.9-.329 7.791-1.155 11.687-1.3a68.636 68.636 0 0 1 11.687.574c1.947.231 3.895.489 5.843.651 1.948.19 3.9.264 5.843.364 3.9.2 7.791.4 11.687.313s7.791-.325 11.686-.709c1.948-.193 3.9-.416 5.844-.711 1.948-.279 3.9-.6 5.843-1.05v-.51c-1.948-.445-3.9-.771-5.843-1.05-1.948-.306-3.896-.528-5.844-.721ZM21.952 189.171c.54 8.133.9 16.265 1.189 24.4l.216 6.1.167 6.1c.106 4.066.229 8.133.284 12.2l.2 12.2.1 12.2q.132 12.2-.142 24.4c-.356 16.265-1.24 32.531-1.406 48.8s.1 32.531.619 48.8l.37 12.2.184 6.1.147 6.1c.19 8.133.288 16.265.392 24.4l.274 24.4c.094 8.133.092 16.265.063 24.4-.048 8.133-.124 16.265-.271 24.4l-.212 12.2-.288 12.2c-.086 4.066-.221 8.133-.344 12.2s-.259 8.133-.415 12.2c-.3 8.133-.651 16.265-1.131 24.4h-.549c-.48-8.133-.831-16.265-1.131-24.4q-.234-6.1-.415-12.2c-.123-4.066-.258-8.133-.344-12.2l-.287-12.2-.212-12.2a1984.48 1984.48 0 0 1-.272-24.4c-.029-8.133-.03-16.265.064-24.4l.274-24.4c.1-8.133.2-16.265.392-24.4l.146-6.1.184-6.1.371-12.2c.518-16.265.8-32.531.618-48.8s-1.049-32.531-1.406-48.8q-.261-12.2-.141-24.4l.1-12.2.2-12.2c.055-4.066.179-8.133.285-12.2l.166-6.1.217-6.1c.289-8.133.648-16.265 1.188-24.4ZM547.821 189.171c.54 8.133.9 16.265 1.188 24.4l.217 6.1.166 6.1c.106 4.066.23 8.133.285 12.2l.2 12.2.1 12.2q.132 12.2-.141 24.4c-.357 16.265-1.24 32.531-1.406 48.8s.1 32.531.618 48.8l.371 12.2.184 6.1.146 6.1c.191 8.133.289 16.265.392 24.4l.274 24.4c.094 8.133.093 16.265.064 24.4-.049 8.133-.124 16.265-.272 24.4l-.212 12.2-.287 12.2c-.086 4.066-.221 8.133-.344 12.2s-.259 8.133-.415 12.2c-.3 8.133-.651 16.265-1.131 24.4h-.549c-.48-8.133-.831-16.265-1.131-24.4q-.234-6.1-.415-12.2c-.123-4.066-.258-8.133-.344-12.2l-.288-12.2-.212-12.2c-.147-8.133-.223-16.265-.271-24.4-.029-8.133-.031-16.265.063-24.4l.274-24.4c.1-8.133.2-16.265.392-24.4l.147-6.1.184-6.1.37-12.2c.518-16.265.8-32.531.619-48.8s-1.05-32.531-1.406-48.8q-.262-12.2-.142-24.4l.1-12.2.205-12.2c.055-4.066.178-8.133.284-12.2l.167-6.1.216-6.1c.289-8.133.649-16.265 1.189-24.4ZM380.67 21.877c-8 1.039-16.01 1.532-24.014 1.859q-6 .235-12.008.3c-4 .065-8 .026-12.007-.152-8.005-.356-16.01-1.236-24.014-1.4-4-.094-8-.067-12.008.039s-8 .338-12.007.578l-6 .369-3 .183-3 .146c-4 .205-8.005.284-12.008.391s-8 .2-12.007.273c-4 .094-8 .092-12.007.063q-12.007-.147-24.015-.768c-2-.086-4-.221-6-.343s-4-.258-6-.413c-4-.3-8.005-.649-12.007-1.127v-.548c4-.478 8-.828 12.007-1.127 2-.155 4-.3 6-.413s4-.257 6-.343q12.007-.64 24.015-.769c4-.029 8-.03 12.007.064q6 .113 12.007.273c4 .107 8 .186 12.008.39l3 .146 3 .184 6 .369c4 .24 8.005.474 12.007.578s8 .133 12.008.038c8-.165 16.009-1.045 24.014-1.4 4-.179 8-.217 12.007-.152q6 .063 12.008.3c8 .327 16.009.819 24.014 1.859ZM380.67 747.381c-8 1.04-16.01 1.532-24.014 1.859q-6 .237-12.008.3c-4 .065-8 .027-12.007-.152-8.005-.356-16.01-1.236-24.014-1.4-4-.095-8-.068-12.008.038s-8 .338-12.007.578l-6 .369-3 .184-3 .146c-4 .2-8.005.283-12.008.39s-8 .2-12.007.273c-4 .094-8 .093-12.007.064q-12.007-.149-24.015-.769c-2-.086-4-.22-6-.343s-4-.258-6-.413c-4-.3-8.005-.649-12.007-1.127v-.548c4-.478 8-.827 12.007-1.127 2-.155 4-.3 6-.413s4-.257 6-.343q12.007-.64 24.015-.768c4-.029 8-.031 12.007.063q6 .114 12.007.273c4 .107 8 .186 12.008.391l3 .146 3 .183 6 .369c4 .24 8.005.475 12.007.578s8 .133 12.008.039c8-.165 16.009-1.046 24.014-1.4 4-.178 8-.217 12.007-.152q6 .064 12.008.3c8 .327 16.009.82 24.014 1.859Z" class="cls-1"/></svg>